<svg width="191" height="221" viewBox="0 0 191 221" fill="none" xmlns="http://www.w3.org/2000/svg">
<path d="M178.466 145.355L159.854 130.361C162.87 117.816 163.065 104.222 159.799 90.6037L178.466 75.793L163.566 46.5747L142.801 57.3411C134.72 48.109 124.428 41.1209 112.387 37.5164L110.401 11.7931H80.5992L78.613 37.5164C66.5722 41.1209 56.2798 48.109 48.199 57.3411L27.4333 46.5747L12.5343 75.793L31.2012 90.6037C27.9358 104.222 28.1305 117.816 31.146 130.361L12.5345 145.355L27.4333 174.426L48.199 163.659C56.2798 172.891 66.5722 179.879 78.613 183.483L80.5992 209.207H110.401L112.387 183.483C124.428 179.879 134.72 172.891 142.801 163.659L163.566 174.426L178.466 145.355ZM116.067 0C118.818 0 121.063 2.45446 121.189 5.53631L123.016 29.1894C130.761 32.5382 137.798 37.2007 143.976 42.8866L162.955 32.8588C165.373 31.4424 168.372 32.4182 169.747 35.1179L190.312 75.4562C191.687 78.1559 190.935 81.5869 188.642 83.2512L171.478 96.8706C172.79 106.145 172.745 115.381 171.489 124.287L188.642 137.897C190.935 139.562 191.687 142.993 190.312 145.693L169.747 185.882C168.372 188.582 165.373 189.557 162.955 188.141L143.976 178.114C137.798 183.8 130.761 188.461 123.016 191.811L121.189 215.464C121.063 218.545 118.818 221 116.067 221H74.9334C72.1823 221 69.9371 218.545 69.8104 215.464L67.9841 191.811C60.2389 188.461 53.2024 183.8 47.0239 178.114L28.0455 188.141C25.6269 189.557 22.6283 188.582 21.2528 185.882L0.687984 145.693C-0.687617 142.993 0.0657793 139.562 2.35787 137.897L19.5111 124.287C18.2547 115.381 18.2093 106.145 19.5225 96.8706L2.35787 83.2512C0.0657793 81.5869 -0.687617 78.1559 0.687984 75.4562L21.2528 35.1179C22.6283 32.4182 25.6269 31.4424 28.0455 32.859L47.0239 42.8866C53.2024 37.2007 60.2389 32.5382 67.9841 29.1894L69.8104 5.53631C69.9371 2.45446 72.1823 0 74.9334 0H116.067ZM95.5 69.9061C115.327 69.9061 131.4 88.1188 131.4 110.585C131.4 133.052 115.327 151.264 95.5 151.264C75.6727 151.264 59.5996 133.052 59.5996 110.585C59.5996 88.1188 75.6727 69.9061 95.5 69.9061ZM95.5 81.5287C81.3378 81.5287 69.8568 94.5379 69.8568 110.585C69.8568 126.633 81.3378 139.642 95.5 139.642C109.662 139.642 121.143 126.633 121.143 110.585C121.143 94.5379 109.662 81.5287 95.5 81.5287Z" fill="#FAAE58"/>
</svg>
