<svg width="48" height="31" viewBox="0 0 48 31" fill="none" xmlns="http://www.w3.org/2000/svg">
<path d="M11.9797 19.8323L23.4833 26.8115C23.7339 26.9635 23.8592 27.0395 23.9979 27.0401H24.0021C24.1408 27.0395 24.2661 26.9635 24.5167 26.8115L36.0203 19.8323C40.9094 16.8662 41.4237 9.96842 37.0287 6.30997C33.757 3.58657 28.8681 4.17651 26.3381 7.60001L24.9637 9.45982L24.9637 9.45984C24.8206 9.65348 24.749 9.75031 24.681 9.81356C24.2972 10.1705 23.7028 10.1705 23.319 9.81356C23.251 9.75031 23.1794 9.65348 23.0363 9.45984L23.0363 9.45982L21.6619 7.60001C19.1319 4.17651 14.243 3.58657 10.9713 6.30997C6.57626 9.96842 7.09063 16.8662 11.9797 19.8323Z" fill="#FAAE58" stroke="#FAAE58" stroke-width="1.4"/>
</svg>
