<svg width="254" height="221" viewBox="0 0 254 221" fill="none" xmlns="http://www.w3.org/2000/svg">
<path d="M52.917 46.0398H190.5C208.036 46.0398 222.25 58.408 222.25 73.6648V156.54C222.25 171.797 208.035 184.165 190.5 184.165H52.917C35.3819 184.165 21.167 171.797 21.167 156.54V73.6648C21.167 58.408 35.382 46.0398 52.917 46.0398ZM52.917 55.2482C41.227 55.2482 31.7503 63.4936 31.7503 73.6649V82.8732H211.667V73.6649C211.667 63.4936 202.191 55.2482 190.5 55.2482H52.917ZM31.7502 156.54C31.7502 166.711 41.227 174.956 52.9169 174.956H190.5C202.19 174.956 211.667 166.711 211.667 156.54V110.498H31.7503L31.7502 156.54ZM52.917 147.331H95.2503V156.54H52.917V147.331ZM116.417 147.331H148.167V156.54H116.417V147.331ZM31.7503 92.0815V101.29H211.667V92.0815H31.7503Z" fill="#FAAE58"/>
</svg>
