<svg width="230" height="167" viewBox="0 0 230 167" fill="none" xmlns="http://www.w3.org/2000/svg">
<path fill-rule="evenodd" clip-rule="evenodd" d="M114 55.6667H30.75C29.8072 55.6667 29.3358 55.6667 29.0429 55.9596C28.75 56.2525 28.75 56.7239 28.75 57.6668V88.4584C28.75 89.4012 28.75 89.8726 29.0429 90.1655C29.3358 90.4584 29.8072 90.4584 30.75 90.4584H57.5V96.4168H114V55.6667ZM57.5 98.4168V144.125C57.5 145.068 57.5 145.539 57.7929 145.832C58.0858 146.125 58.5572 146.125 59.5 146.125H114V98.4168H57.5ZM116 146.125H170.5C171.443 146.125 171.914 146.125 172.207 145.832C172.5 145.539 172.5 145.068 172.5 144.125V98.4168H116V146.125ZM172.5 96.4168V90.4584H199.25C200.193 90.4584 200.664 90.4584 200.957 90.1655C201.25 89.8726 201.25 89.4012 201.25 88.4584V57.6667C201.25 56.7239 201.25 56.2525 200.957 55.9596C200.664 55.6667 200.193 55.6667 199.25 55.6667H116V96.4168H172.5Z" fill="#FAAE58"/>
<path d="M182.083 40.1764V16.4586C182.083 15.1636 180.872 14.2101 179.613 14.5147L141.073 23.8424C139.677 24.1804 138.36 24.7885 137.198 25.6326L115 41.7501V48.7084H153.095C153.253 48.7084 153.411 48.6896 153.565 48.6523L180.554 42.1203C181.451 41.9031 182.083 41.0997 182.083 40.1764Z" fill="#333333"/>
<path d="M47.9166 40.1764V16.4586C47.9166 15.1636 49.1285 14.2101 50.3871 14.5147L88.9269 23.8424C90.3232 24.1804 91.6398 24.7885 92.8023 25.6326L115 41.7501V48.7084H76.9052C76.7467 48.7084 76.5888 48.6896 76.4347 48.6523L49.4462 42.1203C48.5487 41.9031 47.9166 41.0997 47.9166 40.1764Z" fill="#333333"/>
</svg>
