<svg width="317" height="158" viewBox="0 0 317 158" fill="none" xmlns="http://www.w3.org/2000/svg">
<g clip-path="url(#clip0_176_3828)">
<path d="M303.055 108.164C295.761 113.117 289.07 118.656 283.078 124.702C273.701 134.131 266.112 144.703 260.577 156.049C260.172 156.876 261.785 157.237 262.185 156.418C271.241 137.979 285.698 121.726 304.234 109.147C305.066 108.582 303.88 107.604 303.055 108.164Z" fill="white"/>
<path d="M102.047 155.437C107.622 151.51 111.008 145.307 110.12 139.268C109.232 133.229 103.732 127.677 96.5981 126.395C89.4642 125.112 81.332 128.662 79.1652 134.472C77.9727 123.271 76.5986 111.601 69.4554 102.062C62.9874 93.4254 51.7848 87.2453 39.6437 86.1397C27.5025 85.0341 14.7194 89.2098 7.14746 97.1988C-0.424524 105.188 -2.27849 116.802 3.02473 125.974C6.93143 132.731 14.1289 137.759 21.6701 141.85C45.7292 154.902 75.5744 160.345 103.973 156.861" fill="#F2F2F2"/>
<path d="M19.1536 89.4413C29.1716 96.2439 38.362 103.852 46.5919 112.156C54.8232 120.451 62.0699 129.392 68.2303 138.854C71.6737 144.161 74.767 149.622 77.4963 155.211C78.0528 156.347 75.8385 156.842 75.2881 155.718C70.4538 145.865 64.4728 136.431 57.4308 127.551C50.4231 118.703 42.4024 110.442 33.4814 102.886C28.4356 98.6135 23.1119 94.576 17.5344 90.7912C16.3911 90.0151 18.0198 88.6716 19.1536 89.4413L19.1536 89.4413Z" fill="white"/>
<path d="M227.548 157.654H94.5535V43.8941C94.5535 19.6908 118.173 0 147.205 0H174.897C203.929 0 227.548 19.6908 227.548 43.8941V157.654Z" fill="#F2F2F2"/>
<path d="M199.856 157.654H94.5535V43.8941C94.5244 34.6199 98.047 25.5801 104.608 18.0909C104.85 17.8161 105.092 17.5448 105.34 17.2765C108.514 13.8063 112.291 10.7501 116.546 8.20891C116.787 8.0631 117.028 7.91983 117.273 7.77655C120.833 5.72231 124.685 4.04301 128.74 2.77687C128.981 2.70078 129.226 2.62454 129.471 2.55142C133.139 1.46032 136.941 0.712918 140.806 0.323021C141.046 0.295727 141.292 0.27437 141.538 0.253012C145.305 -0.0827912 149.105 -0.0827912 152.872 0.253012C153.117 0.27437 153.363 0.295725 153.606 0.323313C157.471 0.713235 161.271 1.46054 164.938 2.55143C165.183 2.62456 165.428 2.70079 165.67 2.77703C169.675 4.0272 173.481 5.68144 177.004 7.70283C177.249 7.843 177.494 7.98628 177.735 8.12956C180.12 9.54898 182.361 11.1303 184.433 12.8574C186.096 14.2427 187.644 15.7193 189.07 17.2774C189.318 17.5448 189.559 17.8161 189.8 18.0905C196.362 25.5798 199.885 34.6197 199.856 43.8941V157.654Z" fill="#CCCCCC"/>
<path d="M191.293 106.773C194.513 106.773 197.123 104.597 197.123 101.913C197.123 99.229 194.513 97.053 191.293 97.053C188.073 97.053 185.463 99.229 185.463 101.913C185.463 104.597 188.073 106.773 191.293 106.773Z" fill="#6C63FF"/>
<path d="M216.653 154.247H212.186L210.06 139.882L216.654 139.883L216.653 154.247Z" fill="#FFB8B8"/>
<path d="M208.995 153.183H217.61V157.705H203.57C203.57 157.111 203.711 156.523 203.983 155.974C204.256 155.426 204.655 154.927 205.159 154.507C205.663 154.087 206.261 153.754 206.919 153.527C207.577 153.3 208.282 153.183 208.995 153.183Z" fill="#2F2E41"/>
<path d="M238.879 154.247H234.412L232.287 139.882L238.88 139.883L238.879 154.247Z" fill="#FFB8B8"/>
<path d="M231.221 153.183H239.836V157.705H225.797C225.797 157.111 225.937 156.523 226.21 155.974C226.482 155.426 226.882 154.927 227.386 154.507C227.889 154.087 228.487 153.754 229.145 153.527C229.803 153.3 230.509 153.183 231.221 153.183Z" fill="#2F2E41"/>
<path d="M194.244 102.876C193.922 102.481 193.709 102.033 193.618 101.562C193.527 101.091 193.561 100.609 193.718 100.15C193.874 99.6911 194.15 99.2665 194.525 98.906C194.899 98.5455 195.365 98.2579 195.887 98.0635L211.072 63.171L218.545 66.5705L201.206 99.9151C201.54 100.669 201.53 101.498 201.179 102.246C200.829 102.994 200.161 103.609 199.302 103.974C198.444 104.339 197.455 104.429 196.523 104.226C195.59 104.024 194.779 103.544 194.244 102.876Z" fill="#FFB8B8"/>
<path d="M236.597 109.433C236.101 109.195 235.673 108.87 235.344 108.48C235.014 108.09 234.791 107.644 234.691 107.175C234.59 106.705 234.615 106.223 234.762 105.762C234.909 105.301 235.176 104.872 235.543 104.506L230.839 67.5961L239.342 67.92L241.298 104.226C241.994 104.781 242.421 105.53 242.499 106.331C242.578 107.131 242.301 107.928 241.721 108.57C241.142 109.212 240.3 109.654 239.356 109.813C238.412 109.972 237.43 109.837 236.597 109.433Z" fill="#FFB8B8"/>
<path d="M223.032 56.708C227.974 56.708 231.981 53.3677 231.981 49.2472C231.981 45.1267 227.974 41.7864 223.032 41.7864C218.089 41.7864 214.082 45.1267 214.082 49.2472C214.082 53.3677 218.089 56.708 223.032 56.708Z" fill="#FFB8B8"/>
<path d="M236.54 101.038H209.56L209.592 100.863C209.641 100.601 214.401 74.6058 210.89 66.1013C210.538 65.2655 210.569 64.3507 210.977 63.5328C211.385 62.715 212.142 62.0519 213.102 61.6713H213.102C218.12 59.7013 227.752 57.2755 235.882 63.1626C237.078 64.0431 238.012 65.1436 238.611 66.3771C239.209 67.6106 239.455 68.9431 239.329 70.2695L236.54 101.038Z" fill="#6C63FF"/>
<path d="M214.742 78.4475L202.595 76.3931L208.289 65.1447C208.629 64.0553 209.475 63.123 210.639 62.5523C211.803 61.9816 213.191 61.8192 214.499 62.1006C215.806 62.382 216.927 63.0843 217.614 64.0535C218.301 65.0227 218.5 66.1795 218.165 67.2704L214.742 78.4475Z" fill="#6C63FF"/>
<path d="M230.299 82.2621L229.569 68.3067C229.015 65.6833 230.816 63.2033 233.587 62.798C236.358 62.3941 239.064 64.2136 239.62 66.8562L242.365 79.8962L230.299 82.2621Z" fill="#6C63FF"/>
<path d="M235.643 99.3672C239.984 113.151 240.457 130.676 239.286 149.792L233.456 149.185L222.89 112.733L217.06 149.792L210.501 149.489C208.542 129.431 206.634 112.212 209.772 100.886L235.643 99.3672Z" fill="#2F2E41"/>
<path d="M228.928 55.0131C227.259 56.4957 224.158 55.6998 223.941 53.6744C223.924 53.5171 223.925 53.3588 223.944 53.2018C224.057 52.3046 224.678 51.49 224.53 50.5427C224.496 50.307 224.39 50.0823 224.223 49.89C222.893 48.4048 219.77 50.5543 218.514 49.2098C217.745 48.3854 218.65 47.0873 218.059 46.1659C217.279 44.9497 214.969 45.5497 213.521 44.8836C211.909 44.1426 212.006 42.0813 213.067 40.8276C214.36 39.2985 216.629 38.4826 218.869 38.3651C221.109 38.2475 223.333 38.7523 225.424 39.4317C227.8 40.2037 230.157 41.2706 231.619 43.0123C233.397 45.1306 233.568 47.9783 232.679 50.4551C232.138 51.9618 230.292 53.8024 228.928 55.0131Z" fill="#2F2E41"/>
<path d="M306.062 157.85H37.0517C36.9368 157.849 36.8268 157.811 36.7457 157.743C36.6646 157.675 36.6191 157.584 36.6191 157.488C36.6191 157.392 36.6646 157.3 36.7457 157.233C36.8268 157.165 36.9368 157.126 37.0517 157.126H306.062C306.177 157.126 306.287 157.165 306.368 157.233C306.449 157.3 306.495 157.392 306.495 157.488C306.495 157.584 306.449 157.675 306.368 157.743C306.287 157.811 306.177 157.849 306.062 157.85Z" fill="#3F3D56"/>
<path d="M170.889 124.696H123.521C122.897 124.698 122.297 124.495 121.853 124.13C121.409 123.764 121.157 123.267 121.152 122.747V34.6035C121.157 34.0834 121.409 33.5862 121.853 33.2209C122.297 32.8555 122.897 32.652 123.521 32.6548H170.889C171.512 32.652 172.112 32.8555 172.556 33.2209C173 33.5862 173.252 34.0834 173.257 34.6035V122.747C173.252 123.267 173 123.764 172.556 124.13C172.112 124.495 171.512 124.698 170.889 124.696Z" fill="white"/>
<path d="M173.257 61.1752H121.152V61.7827H173.257V61.1752Z" fill="#CCCCCC"/>
<path d="M173.439 95.838H121.334V96.4455H173.439V95.838Z" fill="#CCCCCC"/>
<path d="M138.278 32.6548H137.549V124.999H138.278V32.6548Z" fill="#CCCCCC"/>
<path d="M156.496 32.6548H155.767V124.999H156.496V32.6548Z" fill="#CCCCCC"/>
<path d="M242.703 156.213C238.644 153.354 236.179 148.838 236.826 144.441C237.472 140.045 241.476 136.003 246.67 135.069C251.864 134.135 257.785 136.72 259.362 140.95C260.231 132.795 261.231 124.298 266.432 117.353C271.141 111.065 279.297 106.566 288.137 105.761C296.976 104.956 306.283 107.996 311.796 113.812C317.309 119.629 318.659 128.085 314.798 134.763C311.954 139.682 306.713 143.343 301.223 146.322C283.481 155.865 262.202 159.746 241.301 157.25L242.703 156.213Z" fill="#F2F2F2"/>
</g>
<defs>
<clipPath id="clip0_176_3828">
<rect width="317" height="158" fill="white"/>
</clipPath>
</defs>
</svg>
