<svg width="31" height="25" viewBox="0 0 31 25" fill="none" xmlns="http://www.w3.org/2000/svg">
<g clip-path="url(#clip0_176_3811)">
<path d="M30.9837 12.7339C30.9837 11.7097 30.8782 10.9622 30.6499 10.1871H15.8088V14.81H24.5202C24.3446 15.9589 23.3962 17.689 21.2886 18.8516L21.259 19.0064L25.9515 21.8712L26.2766 21.8968C29.2624 19.7237 30.9837 16.5263 30.9837 12.7339Z" fill="#4285F4"/>
<path d="M15.8088 24.9141C20.0766 24.9141 23.6596 23.8068 26.2766 21.8967L21.2886 18.8516C19.9538 19.5852 18.1622 20.0973 15.8088 20.0973C11.6287 20.0973 8.08089 17.9243 6.8162 14.9208L6.63082 14.9332L1.75149 17.909L1.68768 18.0488C4.28705 22.1181 9.62637 24.9141 15.8088 24.9141Z" fill="#34A853"/>
<path d="M6.8161 14.9208C6.4824 14.1457 6.28928 13.3152 6.28928 12.457C6.28928 11.5988 6.4824 10.7684 6.79854 9.99331L6.78971 9.82823L1.84923 6.80457L1.68758 6.86516C0.616256 8.5538 0.00152588 10.4501 0.00152588 12.457C0.00152588 14.464 0.616256 16.3602 1.68758 18.0488L6.8161 14.9208Z" fill="#FBBC05"/>
<path d="M15.8088 4.8167C18.777 4.8167 20.7792 5.8271 21.9209 6.67147L26.382 3.23883C23.6422 1.23187 20.0767 0 15.8088 0C9.62638 0 4.28706 2.7959 1.68768 6.86517L6.79865 9.99332C8.0809 6.98979 11.6287 4.8167 15.8088 4.8167Z" fill="#EB4335"/>
</g>
<defs>
<clipPath id="clip0_176_3811">
<rect width="31" height="25" fill="white"/>
</clipPath>
</defs>
</svg>
