<svg width="185" height="120" viewBox="0 0 185 120" fill="none" xmlns="http://www.w3.org/2000/svg">
<path d="M44.0021 14.0207C44.8343 7.34481 45.2505 4.00689 47.5192 2.00344C49.7879 0 53.1517 0 59.8792 0H125.121C131.848 0 135.212 0 137.481 2.00344C139.75 4.00689 140.166 7.34481 140.998 14.0207L148.021 70.3536C148.308 72.6609 148.452 73.8145 148.908 74.8666C149.364 75.9188 150.107 76.8128 151.593 78.601L183.275 116.722C184.454 118.14 185.044 118.849 184.774 119.425C184.504 120 183.582 120 181.737 120H3.2628C1.41825 120 0.495981 120 0.226087 119.425C-0.0438063 118.849 0.545687 118.14 1.72467 116.722L33.4071 78.601C34.8933 76.8128 35.6364 75.9188 36.0921 74.8666C36.5478 73.8145 36.6916 72.6609 36.9793 70.3536L44.0021 14.0207Z" fill="#FAAE58"/>
</svg>
