<svg width="27" height="30" viewBox="0 0 27 30" fill="none" xmlns="http://www.w3.org/2000/svg">
<path d="M5.41777 3C4.05111 3 2.90111 3 1.96777 3C1.16777 3 0.767774 2.55 0.767774 1.65C0.767774 1.18333 0.917774 0.8 1.21777 0.5C1.51777 0.2 1.96777 0.05 2.56777 0.05C7.53444 0.0833333 11.8844 0.1 15.6178 0.1C19.3844 0.1 22.5178 0.0833333 25.0178 0.05C25.8511 0.05 26.2678 0.516667 26.2678 1.45C26.2678 1.81667 26.0511 2.16667 25.6178 2.5C25.1844 2.83333 24.7844 3 24.4178 3C23.1178 3.03333 21.3344 3.05 19.0678 3.05L5.41777 3ZM5.41777 16C4.05111 16 2.90111 16 1.96777 16C1.16777 16 0.767774 15.55 0.767774 14.65C0.767774 14.1833 0.917774 13.8 1.21777 13.5C1.51777 13.2 1.96777 13.05 2.56777 13.05C7.53444 13.0833 11.8844 13.1 15.6178 13.1C19.3844 13.1 22.5178 13.0833 25.0178 13.05C25.8511 13.05 26.2678 13.5167 26.2678 14.45C26.2678 14.8167 26.0511 15.1667 25.6178 15.5C25.1844 15.8333 24.7844 16 24.4178 16C23.1178 16.0333 21.3344 16.05 19.0678 16.05L5.41777 16ZM5.41777 29C4.05111 29 2.90111 29 1.96777 29C1.16777 29 0.767774 28.55 0.767774 27.65C0.767774 27.1833 0.917774 26.8 1.21777 26.5C1.51777 26.2 1.96777 26.05 2.56777 26.05C7.53444 26.0833 11.8844 26.1 15.6178 26.1C19.3844 26.1 22.5178 26.0833 25.0178 26.05C25.8511 26.05 26.2678 26.5167 26.2678 27.45C26.2678 27.8167 26.0511 28.1667 25.6178 28.5C25.1844 28.8333 24.7844 29 24.4178 29C23.1178 29.0333 21.3344 29.05 19.0678 29.05L5.41777 29Z" fill="black"/>
</svg>
